# xmcd
# 
# Track frame offsets:
#     150
#     15871
#     31820
#     47762
# 
# Disc length: 844
# 
# Revision: 0
# Processed by: cddbd v1.5.2PL0 Copyright (c) Steve Scherf et al.
# Submitted via: fre:ac v1.0.31
# 
DISCID=1f034a04
DTITLE=TWICE - HAPPY HAPPY
DYEAR=2019
DGENRE=
TTITLE0=HAPPY HAPPY
TTITLE1=The Best Thing I Ever Did -Japanese ver.-
TTITLE2=HAPPY HAPPY (collapsedone Remix)
TTITLE3=HAPPY HAPPY (Instrumental)
EXTD=2019.07.17 Release
EXTT0=
EXTT1=
EXTT2=
EXTT3=
PLAYORDER=
